<?xml version="1.0" encoding="UTF-8"?>
<svg xmlns="http://www.w3.org/2000/svg" xmlns:xlink="http://www.w3.org/1999/xlink" width="32px" height="32px" viewBox="0 0 32 32" version="1.1">
<g id="surface1">
<path style=" stroke:none;fill-rule:nonzero;fill:rgb(0%,0%,0%);fill-opacity:1;" d="M 15.011719 0.246094 C 12.734375 0.425781 10.816406 0.953125 8.871094 1.941406 C 4.339844 4.234375 1.195312 8.585938 0.425781 13.632812 C 0.28125 14.570312 0.222656 16.492188 0.316406 17.414062 C 0.800781 22.449219 3.566406 26.878906 7.839844 29.472656 C 9.636719 30.558594 11.585938 31.253906 13.867188 31.609375 C 14.734375 31.742188 17.242188 31.742188 18.160156 31.609375 C 22.527344 30.960938 26.316406 28.660156 28.851562 25.121094 C 32.792969 19.621094 32.71875 12.046875 28.660156 6.597656 C 26.085938 3.128906 22.246094 0.886719 17.96875 0.347656 C 17.324219 0.265625 15.542969 0.203125 15.011719 0.246094 Z M 18.078125 1.574219 C 21.273438 2.074219 24.015625 3.445312 26.246094 5.652344 C 28.496094 7.886719 29.914062 10.683594 30.40625 13.871094 C 30.507812 14.507812 30.527344 14.871094 30.527344 15.972656 C 30.535156 17.359375 30.476562 17.957031 30.234375 19.066406 C 29.097656 24.273438 25.148438 28.5 20.046875 29.96875 C 18.683594 30.363281 17.5 30.523438 16 30.523438 C 14.085938 30.523438 12.421875 30.214844 10.71875 29.546875 C 6.136719 27.738281 2.800781 23.796875 1.765625 18.976562 C 1.371094 17.109375 1.371094 14.921875 1.765625 12.988281 C 2.191406 10.9375 3.148438 8.863281 4.464844 7.128906 C 4.96875 6.46875 6.039062 5.359375 6.71875 4.789062 C 8.902344 2.964844 11.601562 1.828125 14.550781 1.492188 C 15.195312 1.417969 17.429688 1.472656 18.078125 1.574219 Z M 18.078125 1.574219 "/>
<path style=" stroke:none;fill-rule:nonzero;fill:rgb(0%,0%,0%);fill-opacity:1;" d="M 12.792969 7.007812 C 12.21875 7.210938 11.839844 7.742188 11.8125 8.390625 L 11.800781 8.703125 L 11.011719 9.128906 C 10.304688 9.507812 10.21875 9.546875 10.136719 9.472656 C 9.828125 9.195312 9.207031 9.097656 8.734375 9.257812 C 7.914062 9.535156 7.519531 10.523438 7.910156 11.316406 C 8.339844 12.191406 9.476562 12.421875 10.207031 11.78125 C 10.585938 11.445312 10.691406 11.210938 10.691406 10.667969 C 10.691406 10.347656 10.667969 10.160156 10.601562 10.042969 L 10.515625 9.871094 L 10.683594 9.769531 C 10.777344 9.710938 11.097656 9.535156 11.398438 9.382812 L 11.941406 9.09375 L 12.039062 9.226562 C 12.425781 9.785156 13.09375 10.027344 13.726562 9.84375 C 13.960938 9.777344 14.101562 9.691406 14.335938 9.464844 L 14.632812 9.171875 L 15.382812 9.660156 C 16.355469 10.292969 16.316406 10.246094 16.136719 10.457031 C 15.546875 11.164062 15.769531 12.289062 16.585938 12.710938 C 17.34375 13.09375 18.171875 12.851562 18.597656 12.121094 C 18.703125 11.9375 18.746094 11.785156 18.761719 11.472656 L 18.789062 11.066406 L 19.632812 10.332031 L 20.480469 9.59375 L 20.785156 9.742188 C 21.039062 9.867188 21.15625 9.894531 21.464844 9.886719 C 21.886719 9.882812 22.144531 9.785156 22.425781 9.542969 C 22.746094 9.257812 22.890625 8.949219 22.921875 8.5 C 22.945312 8.136719 22.933594 8.078125 22.773438 7.753906 C 22.492188 7.183594 21.996094 6.894531 21.34375 6.945312 C 20.792969 6.988281 20.375 7.257812 20.132812 7.738281 C 19.894531 8.207031 19.902344 8.523438 20.175781 9.226562 C 20.199219 9.28125 19.96875 9.515625 19.429688 9.972656 C 19.003906 10.339844 18.640625 10.644531 18.625 10.652344 C 18.601562 10.660156 18.539062 10.59375 18.480469 10.507812 C 18.179688 10.054688 17.433594 9.808594 16.863281 9.972656 C 16.691406 10.019531 16.640625 9.988281 15.726562 9.402344 L 14.773438 8.785156 L 14.769531 8.433594 C 14.769531 8.238281 14.734375 8.003906 14.703125 7.910156 C 14.492188 7.332031 13.914062 6.933594 13.3125 6.933594 C 13.128906 6.9375 12.902344 6.96875 12.792969 7.007812 Z M 12.792969 7.007812 "/>
<path style=" stroke:none;fill-rule:nonzero;fill:rgb(0%,0%,0%);fill-opacity:1;" d="M 20.273438 12.296875 C 20.160156 12.441406 20.160156 12.457031 20.160156 17.867188 C 20.160156 23.273438 20.160156 23.289062 20.273438 23.433594 L 20.378906 23.574219 L 21.445312 23.574219 C 22.4375 23.574219 22.511719 23.566406 22.613281 23.464844 C 22.71875 23.359375 22.71875 23.289062 22.71875 17.867188 C 22.71875 12.441406 22.71875 12.375 22.613281 12.265625 C 22.511719 12.164062 22.4375 12.160156 21.445312 12.160156 L 20.378906 12.160156 Z M 20.273438 12.296875 "/>
<path style=" stroke:none;fill-rule:nonzero;fill:rgb(0%,0%,0%);fill-opacity:1;" d="M 12.113281 13.578125 C 12 13.722656 12 13.742188 12 18.515625 L 12 23.3125 L 12.132812 23.441406 C 12.261719 23.574219 12.265625 23.574219 13.308594 23.574219 C 14.277344 23.574219 14.351562 23.566406 14.453125 23.464844 C 14.558594 23.359375 14.558594 23.289062 14.558594 18.484375 L 14.558594 13.605469 L 14.441406 13.523438 C 14.339844 13.457031 14.136719 13.441406 13.273438 13.441406 L 12.21875 13.441406 Z M 12.113281 13.578125 "/>
<path style=" stroke:none;fill-rule:nonzero;fill:rgb(0%,0%,0%);fill-opacity:1;" d="M 8.058594 15.070312 C 7.945312 15.210938 7.945312 15.246094 7.945312 19.253906 C 7.945312 23.257812 7.945312 23.296875 8.058594 23.433594 L 8.164062 23.574219 L 9.230469 23.574219 C 10.222656 23.574219 10.296875 23.566406 10.398438 23.464844 C 10.507812 23.359375 10.507812 23.289062 10.507812 19.253906 C 10.507812 15.214844 10.507812 15.148438 10.398438 15.039062 C 10.296875 14.9375 10.222656 14.933594 9.230469 14.933594 L 8.164062 14.933594 Z M 8.058594 15.070312 "/>
<path style=" stroke:none;fill-rule:nonzero;fill:rgb(0%,0%,0%);fill-opacity:1;" d="M 16.179688 16.042969 C 16.003906 16.15625 16 16.308594 16 19.800781 C 16 23.253906 16 23.296875 16.113281 23.433594 L 16.21875 23.574219 L 17.285156 23.574219 C 18.277344 23.574219 18.351562 23.566406 18.453125 23.464844 C 18.558594 23.359375 18.558594 23.289062 18.558594 19.785156 C 18.558594 16.28125 18.558594 16.214844 18.453125 16.105469 C 18.351562 16.003906 18.277344 16 17.296875 16 C 16.714844 16 16.214844 16.019531 16.179688 16.042969 Z M 16.179688 16.042969 "/>
</g>
</svg>
