<svg width="18" height="19" viewBox="0 0 18 19" fill="none" xmlns="http://www.w3.org/2000/svg">
<path d="M12.4764 0.0310059L12.0217 0.529369C11.0035 1.65017 10.1641 2.1513 9.46544 2.47916C8.76676 2.80632 8.17968 2.90405 7.60299 3.34557C6.98818 3.8169 6.09473 4.72075 5.71836 6.33437C4.91155 6.51042 4.321 6.81956 3.85521 7.22227C3.39497 7.62013 3.0484 8.07275 2.62143 8.56557C2.61797 8.57111 2.62351 8.58151 2.62143 8.58705C2.0087 9.29128 1.47291 10.0496 0.433209 10.4502L0 10.6235V18.031H13.2132C13.9708 17.9901 14.4962 17.4654 14.8157 16.9476C15.1346 16.4306 15.3113 15.8705 15.4007 15.4103C15.6309 14.2375 16.0502 10.8612 16.0502 10.8612L16.0724 10.7968V10.7316C16.0502 10.2631 15.8575 9.86519 15.617 9.49645L16.3968 7.1793L17.6319 5.31615L17.9785 4.81779L17.5231 4.40676L12.9748 0.464215L12.4764 0.0310059ZM12.5201 1.93712L16.1369 5.07841L15.1838 6.48547L15.1193 6.55132L15.0972 6.65945L14.4692 8.5219C14.1413 8.38674 13.8038 8.29178 13.4295 8.30564H13.3858L9.01074 8.32713H8.31761V11.013C8.22057 11.7685 7.80053 12.061 7.27791 12.2697C7.10463 12.3397 7.08314 12.3016 6.93134 12.3341V8.30633C6.81767 5.73689 7.7326 4.99731 8.44792 4.45043C8.64546 4.29863 9.22423 4.12327 10.0504 3.73581C10.7408 3.41073 11.5989 2.8278 12.5201 1.93712ZM5.58874 7.89392C5.58597 8.05126 5.53676 8.16216 5.54507 8.32713V13.8722H6.23821C6.23821 13.8722 6.97986 13.8639 7.77627 13.5471C8.57199 13.2304 9.53337 12.4887 9.70388 11.1863V9.7134L13.4295 9.69191H13.451C13.7552 9.67525 14.0537 9.77983 14.281 9.98274C14.5084 10.1857 14.6461 10.4704 14.6639 10.7746C14.6612 10.7857 14.6293 11.0428 14.621 11.0997H11.7833V12.4859H14.4477C14.3742 13.0217 14.307 13.3579 14.2307 13.8722H11.7833V15.2585H14.0145C13.9326 15.5938 13.801 15.915 13.6242 16.2115C13.435 16.52 13.2721 16.6364 13.1266 16.6447H1.38627V11.4677C2.50984 10.8716 3.20852 10.0142 3.66044 9.49714C4.129 8.96065 4.45061 8.55448 4.7653 8.28415C4.97116 8.1081 5.29347 8.00759 5.58874 7.89392Z" fill="black"/>
</svg>
