<svg width="24" height="24" viewBox="0 0 24 24" fill="none" xmlns="http://www.w3.org/2000/svg">
<path d="M20.5151 4.1822C18.7147 2.46972 16.3804 1.35291 13.8581 0.997318C11.3358 0.641723 8.75984 1.06627 6.51199 2.20802C4.26414 3.34978 2.46405 5.14797 1.37856 7.33607C0.293066 9.52417 -0.0200615 11.9857 0.485591 14.3558C0.991243 16.7259 2.28876 18.8785 4.18582 20.4944C6.08288 22.1103 8.4785 23.1035 11.0176 23.3269C13.5567 23.5503 16.1041 22.9919 18.2823 21.7345C20.4605 20.4771 22.1534 18.5877 23.1102 16.3463H19.8181C18.9015 17.8815 17.5005 19.1056 15.8122 19.8465C14.1238 20.5875 12.233 20.8079 10.4056 20.4769C8.5783 20.1458 6.90634 19.2799 5.62491 18.001C4.34347 16.722 3.51703 15.0943 3.26179 13.3468C3.00655 11.5993 3.33537 9.81992 4.202 8.25884C5.06862 6.69776 6.42946 5.43354 8.09313 4.64397C9.75681 3.85441 11.6396 3.57921 13.4768 3.8571C15.314 4.13498 17.0131 4.95196 18.3352 6.19314L13.6194 10.7213H24V0.87752L20.5151 4.1822Z" fill="#A31619"/>
</svg>
