<svg width="20" height="15" viewBox="0 0 20 15" fill="none" xmlns="http://www.w3.org/2000/svg">
<path d="M11.5625 15C13.0459 15 14.4959 14.5601 15.7293 13.736C16.9626 12.9119 17.9239 11.7406 18.4916 10.3701C19.0593 8.99968 19.2078 7.49168 18.9184 6.03683C18.629 4.58197 17.9147 3.2456 16.8658 2.1967C15.8169 1.14781 14.4805 0.433503 13.0257 0.144114C11.5708 -0.145275 10.0628 0.00324965 8.69237 0.570907C7.32193 1.13856 6.15059 2.09986 5.32648 3.33323C4.50237 4.5666 4.0625 6.01664 4.0625 7.5V11.375L1.8125 9.125L0.9375 10L4.6875 13.75L8.4375 10L7.5625 9.125L5.3125 11.375V7.5C5.3125 6.26387 5.67906 5.0555 6.36581 4.02769C7.05257 2.99988 8.02869 2.1988 9.17073 1.72576C10.3128 1.25271 11.5694 1.12894 12.7818 1.3701C13.9942 1.61125 15.1078 2.20651 15.9819 3.08059C16.856 3.95466 17.4513 5.06831 17.6924 6.28069C17.9336 7.49307 17.8098 8.74974 17.3367 9.89178C16.8637 11.0338 16.0626 12.0099 15.0348 12.6967C14.007 13.3834 12.7986 13.75 11.5625 13.75V15Z" fill="#8E8D8D"/>
</svg>
