<svg width="12" height="12" viewBox="0 0 12 12" fill="none" xmlns="http://www.w3.org/2000/svg">
<rect x="0.5" y="0.5" width="11" height="11" rx="1.5" fill="#FDFDFD" stroke="#DDDDDD"/>
<path d="M4.46962 7.84886L2.81271 6.19313C2.72343 6.10392 2.60234 6.05379 2.47607 6.05379C2.34981 6.05379 2.22872 6.10392 2.13944 6.19313C2.05016 6.28235 2 6.40336 2 6.52953C2 6.592 2.01231 6.65386 2.03624 6.71158C2.06016 6.7693 2.09523 6.82175 2.13944 6.86592L4.13538 8.86043C4.3216 9.04652 4.62242 9.04652 4.80865 8.86043L9.86056 3.81213C9.94984 3.72291 10 3.60191 10 3.47573C10 3.34956 9.94984 3.22856 9.86056 3.13934C9.77128 3.05012 9.65019 3 9.52393 3C9.39766 3 9.27657 3.05012 9.18729 3.13934L4.46962 7.84886Z" fill="#0FA958"/>
</svg>
