<svg width="15" height="15" viewBox="0 0 15 15" fill="none" xmlns="http://www.w3.org/2000/svg">
<path d="M10.9707 7.95653C10.8881 8.5865 10.6355 9.1821 10.2401 9.67945C9.84476 10.1768 9.32144 10.5572 8.72632 10.7797C8.13121 11.0022 7.48673 11.0586 6.86203 10.9427C6.23732 10.8268 5.65594 10.543 5.18025 10.1218C4.70456 9.70063 4.3525 9.15788 4.16182 8.55181C3.97114 7.94573 3.94904 7.29917 4.09789 6.68149C4.24674 6.0638 4.56093 5.49829 5.00675 5.0456C5.45258 4.5929 6.01322 4.27011 6.62856 4.11183C8.33435 3.67433 10.1001 4.55238 10.7519 6.18861" stroke="white" stroke-width="0.8" stroke-linecap="round" stroke-linejoin="round"/>
<path d="M11.0005 4.00098V6.18845H8.81299" stroke="white" stroke-width="0.8" stroke-linecap="round" stroke-linejoin="round"/>
<rect width="15" height="15" rx="2" fill="#A31619"/>
<path d="M10.9702 7.95653C10.8876 8.5865 10.635 9.1821 10.2397 9.67945C9.84427 10.1768 9.32095 10.5572 8.72584 10.7797C8.13072 11.0022 7.48625 11.0586 6.86154 10.9427C6.23683 10.8268 5.65546 10.543 5.17976 10.1218C4.70407 9.70063 4.35201 9.15788 4.16133 8.55181C3.97065 7.94573 3.94855 7.29917 4.0974 6.68149C4.24625 6.0638 4.56044 5.49829 5.00626 5.0456C5.45209 4.5929 6.01273 4.27011 6.62807 4.11183C8.33386 3.67433 10.0996 4.55238 10.7515 6.18861" stroke="white" stroke-width="0.8" stroke-linecap="round" stroke-linejoin="round"/>
<path d="M11 4.00098V6.18845H8.8125" stroke="white" stroke-width="0.8" stroke-linecap="round" stroke-linejoin="round"/>
</svg>
