<svg width="25" height="25" viewBox="0 0 25 25" fill="none" xmlns="http://www.w3.org/2000/svg">
<path d="M16.4764 3.03125L16.0217 3.52961C15.0035 4.65041 14.1641 5.15155 13.4654 5.4794C12.7668 5.80656 12.1797 5.90429 11.603 6.34582C10.9882 6.81715 10.0947 7.721 9.71836 9.33461C8.91155 9.51067 8.321 9.81981 7.85521 10.2225C7.39497 10.6204 7.0484 11.073 6.62143 11.5658C6.61797 11.5714 6.62351 11.5818 6.62143 11.5873C6.0087 12.2915 5.47291 13.0498 4.43321 13.4504L4 13.6237V21.0313H17.2132C17.9708 20.9904 18.4962 20.4657 18.8157 19.9479C19.1346 19.4308 19.3113 18.8708 19.4007 18.4105C19.6309 17.2377 20.0502 13.8615 20.0502 13.8615L20.0724 13.797V13.7319C20.0502 13.2633 19.8575 12.8654 19.617 12.4967L20.3968 10.1795L21.6319 8.3164L21.9785 7.81803L21.5231 7.40701L16.9748 3.46446L16.4764 3.03125ZM16.5201 4.93737L20.1369 8.07865L19.1838 9.48572L19.1193 9.55156L19.0972 9.65969L18.4692 11.5221C18.1413 11.387 17.8038 11.292 17.4295 11.3059H17.3858L13.0107 11.3274H12.3176V14.0133C12.2206 14.7688 11.8005 15.0613 11.2779 15.2699C11.1046 15.3399 11.0831 15.3018 10.9313 15.3344V11.3066C10.8177 8.73713 11.7326 7.99756 12.4479 7.45067C12.6455 7.29888 13.2242 7.12351 14.0504 6.73605C14.7408 6.41097 15.5989 5.82805 16.5201 4.93737ZM9.58874 10.8942C9.58597 11.0515 9.53676 11.1624 9.54507 11.3274V16.8724H10.2382C10.2382 16.8724 10.9799 16.8641 11.7763 16.5474C12.572 16.2306 13.5334 15.4889 13.7039 14.1866V12.7136L17.4295 12.6922H17.451C17.7552 12.6755 18.0537 12.7801 18.281 12.983C18.5084 13.1859 18.6461 13.4706 18.6639 13.7748C18.6612 13.7859 18.6293 14.0431 18.621 14.0999H15.7833V15.4862H18.4477C18.3742 16.022 18.307 16.3581 18.2307 16.8724H15.7833V18.2587H18.0145C17.9326 18.5941 17.801 18.9153 17.6242 19.2118C17.435 19.5202 17.2721 19.6367 17.1266 19.645H5.38627V14.468C6.50984 13.8719 7.20852 13.0145 7.66044 12.4974C8.129 11.9609 8.45061 11.5547 8.7653 11.2844C8.97116 11.1083 9.29347 11.0078 9.58874 10.8942Z" fill="black"/>
</svg>
