<svg width="18" height="18" viewBox="0 0 18 18" fill="none" xmlns="http://www.w3.org/2000/svg">
<path d="M14.9534 11.2176C14.8236 12.2075 14.4268 13.1435 13.8054 13.9251C13.1841 14.7067 12.3617 15.3044 11.4265 15.6541C10.4913 16.0038 9.47852 16.0923 8.49682 15.9102C7.51511 15.7281 6.6015 15.2822 5.85396 14.6203C5.10643 13.9584 4.55317 13.1055 4.25352 12.153C3.95388 11.2006 3.91915 10.1845 4.15307 9.21387C4.38698 8.2432 4.88071 7.35452 5.58131 6.64312C6.28191 5.93173 7.16294 5.42446 8.12992 5.17573C10.8105 4.48822 13.5853 5.86805 14.6097 8.43934" stroke="#292929" stroke-width="1.37502" stroke-linecap="round" stroke-linejoin="round"/>
<path d="M14.9996 5.00195V8.4395H11.562" stroke="#292929" stroke-width="1.83336" stroke-linecap="round" stroke-linejoin="round"/>
</svg>
