<svg version="1.1" xmlns="http://www.w3.org/2000/svg" xmlns:xlink="http://www.w3.org/1999/xlink" width="600.000000pt" height="600.000000pt" viewBox="0,0,256,256"><g fill="#a31619" fill-rule="nonzero" stroke="none" stroke-width="1" stroke-linecap="butt" stroke-linejoin="miter" stroke-miterlimit="10" stroke-dasharray="" stroke-dashoffset="0" font-family="none" font-weight="none" font-size="none" text-anchor="none" style="mix-blend-mode: normal"><g transform="translate(-0.11822,0.23055) scale(0.42667,0.42667)"><g transform="translate(0,600) scale(0.1,-0.1)"><path d="M2815,5954c-427,-34 -787,-133 -1152,-318c-849,-430 -1439,-1246 -1583,-2192c-27,-176 -38,-536 -21,-709c91,-944 610,-1775 1411,-2261c337,-204 702,-334 1130,-401c163,-25 633,-25 805,0c819,122 1529,553 2005,1217c739,1031 725,2451 -36,3473c-483,650 -1203,1071 -2005,1172c-121,15 -455,27 -554,19zM3390,5705c599,-94 1113,-351 1531,-765c422,-419 688,-943 780,-1541c19,-119 23,-187 23,-394c1,-260 -10,-372 -55,-580c-213,-976 -954,-1769 -1910,-2044c-256,-74 -478,-104 -759,-104c-359,0 -671,58 -990,183c-859,339 -1485,1078 -1679,1982c-74,350 -74,760 0,1123c80,384 259,773 506,1098c95,124 295,332 423,439c409,342 915,555 1468,618c121,14 540,4 662,-15z"></path><path d="M2399,4686c-108,-38 -179,-138 -184,-259l-2,-59l-148,-80c-133,-71 -149,-78 -164,-64c-58,52 -175,70 -263,40c-154,-52 -228,-237 -155,-386c81,-164 294,-207 431,-87c71,63 91,107 91,209c0,60 -5,95 -17,117l-16,32l31,19c18,11 78,44 134,73l102,54l18,-25c73,-105 198,-150 317,-116c44,13 70,29 114,71l56,55l140,-91c183,-119 175,-110 142,-150c-111,-132 -69,-343 84,-422c142,-72 297,-27 377,110c20,35 28,63 31,122l5,76l158,138l159,138l57,-28c48,-23 70,-28 128,-27c79,1 127,19 180,65c60,53 87,111 93,195c4,68 2,79 -28,140c-53,107 -146,161 -268,152c-103,-8 -182,-59 -227,-149c-45,-88 -43,-147 8,-279c4,-10 -39,-54 -140,-140c-80,-69 -148,-126 -151,-127c-4,-2 -16,11 -27,27c-56,85 -196,131 -303,100c-32,-9 -42,-3 -213,107l-179,116l-1,66c0,36 -6,80 -12,98c-40,108 -148,183 -261,183c-34,-1 -77,-7 -97,-14z"></path><path d="M3801,3694c-21,-27 -21,-30 -21,-1044c0,-1014 0,-1017 21,-1044l20,-26h200c186,0 200,1 219,20c20,20 20,33 20,1050c0,1017 0,1030 -20,1050c-19,19 -33,20 -219,20h-200z"></path><path d="M2271,3454c-21,-27 -21,-31 -21,-926v-899l25,-24c24,-25 25,-25 220,-25c182,0 196,1 215,20c20,20 20,33 20,934v915l-22,15c-19,13 -57,16 -219,16h-198z"></path><path d="M1511,3174c-21,-26 -21,-33 -21,-784c0,-751 0,-758 21,-784l20,-26h200c186,0 200,1 219,20c20,20 20,33 20,790c0,757 0,770 -20,790c-19,19 -33,20 -219,20h-200z"></path><path d="M3034,2992c-33,-21 -34,-50 -34,-705c0,-647 0,-655 21,-681l20,-26h200c186,0 200,1 219,20c20,20 20,33 20,690c0,657 0,670 -20,690c-19,19 -33,20 -217,20c-109,0 -203,-4 -209,-8z"></path></g></g></g></svg>